@startuml
package XMLSchema{
  class int{}
}


package Jeu{
  class Niveau{
    tempsDeJeu : int
    structure : LigneDeTables[]
  }
  
  class LigneDeTables{
    tables : Trinaire[]
  }
  
  enum Trinaire{
    int 0
    int 1
    int 2
  }
}

Niveau "1" *-- "2.20" LigneDeTables
LigneDeTables "1" *-- "many" Trinaire
@enduml